M48
; DRILL file {KiCad (5.1.6)-1} date 03/20/21 19:18:09
; FORMAT={-:-/ absolute / inch / decimal}
; #@! TF.CreationDate,2021-03-20T19:18:09-04:00
; #@! TF.GenerationSoftware,Kicad,Pcbnew,(5.1.6)-1
FMAT,2
INCH
T1C0.0157
T2C0.0276
T3C0.0394
T4C0.0400
T5C0.0433
T6C0.0591
T7C0.0787
T8C0.1575
%
G90
G05
T1
X2.268Y-3.05
X2.316Y-4.332
X2.324Y-3.208
X2.342Y-4.62
X2.376Y-2.508
X2.4093Y-2.6053
X2.418Y-4.36
X2.428Y-3.252
X2.44Y-2.66
X2.548Y-2.446
X2.6Y-2.508
X2.622Y-2.858
X2.78Y-4.084
X2.79Y-2.602
X3.01Y-4.398
X3.126Y-2.87
X3.53Y-2.42
X3.722Y-1.72
X3.742Y-2.574
X3.926Y-3.312
X4.252Y-3.032
X4.3Y-3.276
X4.31Y-3.346
X4.506Y-2.7486
X5.9026Y-4.4026
X6.034Y-4.33
T2
X2.9836Y-4.6075
X2.9836Y-4.8075
X5.3895Y-4.7362
X5.5895Y-4.7362
X2.8596Y-4.6075
X2.8596Y-4.8075
X3.5023Y-4.7365
X3.7023Y-4.7365
X3.0881Y-4.7364
X3.2881Y-4.7364
X5.8036Y-4.7363
X6.0036Y-4.7363
T3
X5.411Y-4.2579
X5.411Y-4.3564
X5.411Y-4.4548
X5.9818Y-4.2579
X5.9818Y-4.4548
X3.1096Y-4.2579
X3.1096Y-4.3564
X3.1096Y-4.4548
X3.6805Y-4.2579
X3.6805Y-4.4548
X2.2755Y-3.1487
X2.3755Y-3.1487
X2.4755Y-3.1487
X2.5755Y-3.1487
T4
X2.2902Y-1.8648
X2.2902Y-1.9648
X2.2902Y-2.0648
X2.2902Y-2.1648
X2.2902Y-2.2648
X2.2902Y-2.3648
X2.2902Y-2.4648
X2.2902Y-2.5648
X2.2902Y-2.6648
X2.2902Y-2.7648
X2.2902Y-2.8648
X2.2902Y-2.9648
X2.8902Y-1.8648
X2.8902Y-1.9648
X2.8902Y-2.0648
X2.8902Y-2.1648
X2.8902Y-2.2648
X2.8902Y-2.3648
X2.8902Y-2.4648
X2.8902Y-2.5648
X2.8902Y-2.6648
X2.8902Y-2.7648
X2.8902Y-2.8648
X2.8902Y-2.9648
T5
X2.2768Y-4.254
X2.2768Y-4.4312
X2.5327Y-4.254
X2.5327Y-4.4312
X2.6646Y-4.254
X2.6646Y-4.4312
X2.9205Y-4.254
X2.9205Y-4.4312
X2.4705Y-4.626
X2.4705Y-4.8032
X2.7264Y-4.626
X2.7264Y-4.8032
T6
X4.7894Y-3.5646
X5.0394Y-3.4646
X4.7894Y-2.7772
X5.0394Y-2.6772
X3.2146Y-1.9898
X3.4646Y-1.8898
X5.5768Y-1.9898
X5.8268Y-1.8898
X4.002Y-3.5646
X4.252Y-3.4646
X4.002Y-2.7772
X4.252Y-2.6772
X5.5768Y-3.5646
X5.8268Y-3.4646
X3.2146Y-2.7772
X3.4646Y-2.6772
X4.7894Y-1.9898
X5.0394Y-1.8898
X3.2146Y-3.5646
X3.4646Y-3.4646
X4.002Y-1.9898
X4.252Y-1.8898
X4.7894Y-4.352
X5.0394Y-4.252
X5.5768Y-2.7772
X5.8268Y-2.6772
X4.002Y-4.352
X4.252Y-4.252
T7
X6.0237Y-4.9211
X1.9291Y-4.9212
X1.9292Y-1.6928
X6.0237Y-1.693
T8
X4.152Y-4.452
X4.9394Y-3.6646
X4.9394Y-2.8772
X3.3646Y-2.0898
X5.7268Y-2.0898
X4.152Y-3.6646
X4.152Y-2.8772
X5.7268Y-3.6646
X3.3646Y-2.8772
X4.9394Y-2.0898
X3.3646Y-3.6646
X4.152Y-2.0898
X4.9394Y-4.452
X5.7268Y-2.8772
T6
G00X5.6807Y-4.1359
M15
G01X5.7318Y-4.1359
M16
G05
G00X5.6807Y-4.5768
M15
G01X5.7318Y-4.5768
M16
G05
G00X3.3793Y-4.1359
M15
G01X3.4305Y-4.1359
M16
G05
G00X3.3793Y-4.5768
M15
G01X3.4305Y-4.5768
M16
G05
T0
M30
