G04 #@! TF.GenerationSoftware,KiCad,Pcbnew,(5.1.6)-1*
G04 #@! TF.CreationDate,2021-02-20T14:11:22-05:00*
G04 #@! TF.ProjectId,MacroKeyboard2,4d616372-6f4b-4657-9962-6f617264322e,rev?*
G04 #@! TF.SameCoordinates,Original*
G04 #@! TF.FileFunction,Copper,L2,Bot*
G04 #@! TF.FilePolarity,Positive*
%FSLAX46Y46*%
G04 Gerber Fmt 4.6, Leading zero omitted, Abs format (unit mm)*
G04 Created by KiCad (PCBNEW (5.1.6)-1) date 2021-02-20 14:11:22*
%MOMM*%
%LPD*%
G01*
G04 APERTURE LIST*
G04 #@! TA.AperFunction,ComponentPad*
%ADD10C,1.879600*%
G04 #@! TD*
G04 #@! TA.AperFunction,ComponentPad*
%ADD11C,2.000000*%
G04 #@! TD*
G04 #@! TA.AperFunction,ViaPad*
%ADD12C,0.800000*%
G04 #@! TD*
G04 #@! TA.AperFunction,Conductor*
%ADD13C,0.250000*%
G04 #@! TD*
G04 APERTURE END LIST*
D10*
G04 #@! TO.P,B1,1*
G04 #@! TO.N,Net-(B1-Pad1)*
X81127600Y-32766000D03*
G04 #@! TO.P,B1,2*
G04 #@! TO.N,Net-(B1-Pad2)*
X81127600Y-35306000D03*
G04 #@! TO.P,B1,3*
G04 #@! TO.N,Net-(B1-Pad3)*
X81127600Y-37846000D03*
G04 #@! TO.P,B1,4*
G04 #@! TO.N,Net-(B1-Pad4)*
X81127600Y-40386000D03*
G04 #@! TO.P,B1,5*
G04 #@! TO.N,Net-(B1-Pad5)*
X81127600Y-42926000D03*
G04 #@! TO.P,B1,6*
G04 #@! TO.N,Net-(B1-Pad6)*
X81127600Y-45466000D03*
G04 #@! TO.P,B1,7*
G04 #@! TO.N,Net-(B1-Pad7)*
X81127600Y-48006000D03*
G04 #@! TO.P,B1,8*
G04 #@! TO.N,Net-(B1-Pad8)*
X81127600Y-50546000D03*
G04 #@! TO.P,B1,9*
G04 #@! TO.N,Net-(B1-Pad9)*
X81127600Y-53086000D03*
G04 #@! TO.P,B1,10*
G04 #@! TO.N,Net-(B1-Pad10)*
X81127600Y-55626000D03*
G04 #@! TO.P,B1,11*
G04 #@! TO.N,Net-(B1-Pad11)*
X81127600Y-58166000D03*
G04 #@! TO.P,B1,12*
G04 #@! TO.N,Net-(B1-Pad12)*
X81127600Y-60706000D03*
G04 #@! TO.P,B1,13*
G04 #@! TO.N,Net-(B1-Pad13)*
X96367600Y-60706000D03*
G04 #@! TO.P,B1,14*
G04 #@! TO.N,Net-(B1-Pad14)*
X96367600Y-58166000D03*
G04 #@! TO.P,B1,15*
G04 #@! TO.N,Net-(B1-Pad15)*
X96367600Y-55626000D03*
G04 #@! TO.P,B1,16*
G04 #@! TO.N,Net-(B1-Pad16)*
X96367600Y-53086000D03*
G04 #@! TO.P,B1,17*
G04 #@! TO.N,Net-(B1-Pad17)*
X96367600Y-50546000D03*
G04 #@! TO.P,B1,18*
G04 #@! TO.N,Net-(B1-Pad18)*
X96367600Y-48006000D03*
G04 #@! TO.P,B1,19*
G04 #@! TO.N,Net-(B1-Pad19)*
X96367600Y-45466000D03*
G04 #@! TO.P,B1,20*
G04 #@! TO.N,Net-(B1-Pad20)*
X96367600Y-42926000D03*
G04 #@! TO.P,B1,21*
G04 #@! TO.N,Net-(B1-Pad21)*
X96367600Y-40386000D03*
G04 #@! TO.P,B1,22*
G04 #@! TO.N,Net-(B1-Pad22)*
X96367600Y-37846000D03*
G04 #@! TO.P,B1,23*
G04 #@! TO.N,Net-(B1-Pad23)*
X96367600Y-35306000D03*
G04 #@! TO.P,B1,24*
G04 #@! TO.N,Net-(B1-Pad24)*
X96367600Y-32766000D03*
G04 #@! TD*
D11*
G04 #@! TO.P,SW1,1*
G04 #@! TO.N,Net-(B1-Pad13)*
X106500000Y-32000000D03*
G04 #@! TO.P,SW1,2*
G04 #@! TO.N,Net-(B1-Pad5)*
X106500000Y-36500000D03*
G04 #@! TO.P,SW1,1*
G04 #@! TO.N,Net-(B1-Pad13)*
X100000000Y-32000000D03*
G04 #@! TO.P,SW1,2*
G04 #@! TO.N,Net-(B1-Pad5)*
X100000000Y-36500000D03*
G04 #@! TD*
G04 #@! TO.P,SW2,2*
G04 #@! TO.N,Net-(B1-Pad5)*
X110000000Y-36500000D03*
G04 #@! TO.P,SW2,1*
G04 #@! TO.N,Net-(B1-Pad14)*
X110000000Y-32000000D03*
G04 #@! TO.P,SW2,2*
G04 #@! TO.N,Net-(B1-Pad5)*
X116500000Y-36500000D03*
G04 #@! TO.P,SW2,1*
G04 #@! TO.N,Net-(B1-Pad14)*
X116500000Y-32000000D03*
G04 #@! TD*
G04 #@! TO.P,SW3,2*
G04 #@! TO.N,Net-(B1-Pad5)*
X120000000Y-36500000D03*
G04 #@! TO.P,SW3,1*
G04 #@! TO.N,Net-(B1-Pad15)*
X120000000Y-32000000D03*
G04 #@! TO.P,SW3,2*
G04 #@! TO.N,Net-(B1-Pad5)*
X126500000Y-36500000D03*
G04 #@! TO.P,SW3,1*
G04 #@! TO.N,Net-(B1-Pad15)*
X126500000Y-32000000D03*
G04 #@! TD*
G04 #@! TO.P,SW4,2*
G04 #@! TO.N,Net-(B1-Pad5)*
X130000000Y-36500000D03*
G04 #@! TO.P,SW4,1*
G04 #@! TO.N,Net-(B1-Pad16)*
X130000000Y-32000000D03*
G04 #@! TO.P,SW4,2*
G04 #@! TO.N,Net-(B1-Pad5)*
X136500000Y-36500000D03*
G04 #@! TO.P,SW4,1*
G04 #@! TO.N,Net-(B1-Pad16)*
X136500000Y-32000000D03*
G04 #@! TD*
G04 #@! TO.P,SW5,2*
G04 #@! TO.N,Net-(B1-Pad6)*
X100000000Y-44500000D03*
G04 #@! TO.P,SW5,1*
G04 #@! TO.N,Net-(B1-Pad13)*
X100000000Y-40000000D03*
G04 #@! TO.P,SW5,2*
G04 #@! TO.N,Net-(B1-Pad6)*
X106500000Y-44500000D03*
G04 #@! TO.P,SW5,1*
G04 #@! TO.N,Net-(B1-Pad13)*
X106500000Y-40000000D03*
G04 #@! TD*
G04 #@! TO.P,SW6,1*
G04 #@! TO.N,Net-(B1-Pad14)*
X116500000Y-40000000D03*
G04 #@! TO.P,SW6,2*
G04 #@! TO.N,Net-(B1-Pad6)*
X116500000Y-44500000D03*
G04 #@! TO.P,SW6,1*
G04 #@! TO.N,Net-(B1-Pad14)*
X110000000Y-40000000D03*
G04 #@! TO.P,SW6,2*
G04 #@! TO.N,Net-(B1-Pad6)*
X110000000Y-44500000D03*
G04 #@! TD*
G04 #@! TO.P,SW7,1*
G04 #@! TO.N,Net-(B1-Pad15)*
X126500000Y-40000000D03*
G04 #@! TO.P,SW7,2*
G04 #@! TO.N,Net-(B1-Pad6)*
X126500000Y-44500000D03*
G04 #@! TO.P,SW7,1*
G04 #@! TO.N,Net-(B1-Pad15)*
X120000000Y-40000000D03*
G04 #@! TO.P,SW7,2*
G04 #@! TO.N,Net-(B1-Pad6)*
X120000000Y-44500000D03*
G04 #@! TD*
G04 #@! TO.P,SW8,1*
G04 #@! TO.N,Net-(B1-Pad16)*
X136500000Y-40000000D03*
G04 #@! TO.P,SW8,2*
G04 #@! TO.N,Net-(B1-Pad6)*
X136500000Y-44500000D03*
G04 #@! TO.P,SW8,1*
G04 #@! TO.N,Net-(B1-Pad16)*
X130000000Y-40000000D03*
G04 #@! TO.P,SW8,2*
G04 #@! TO.N,Net-(B1-Pad6)*
X130000000Y-44500000D03*
G04 #@! TD*
G04 #@! TO.P,SW9,1*
G04 #@! TO.N,Net-(B1-Pad13)*
X106500000Y-48000000D03*
G04 #@! TO.P,SW9,2*
G04 #@! TO.N,Net-(B1-Pad7)*
X106500000Y-52500000D03*
G04 #@! TO.P,SW9,1*
G04 #@! TO.N,Net-(B1-Pad13)*
X100000000Y-48000000D03*
G04 #@! TO.P,SW9,2*
G04 #@! TO.N,Net-(B1-Pad7)*
X100000000Y-52500000D03*
G04 #@! TD*
G04 #@! TO.P,SW10,2*
G04 #@! TO.N,Net-(B1-Pad7)*
X110000000Y-52500000D03*
G04 #@! TO.P,SW10,1*
G04 #@! TO.N,Net-(B1-Pad14)*
X110000000Y-48000000D03*
G04 #@! TO.P,SW10,2*
G04 #@! TO.N,Net-(B1-Pad7)*
X116500000Y-52500000D03*
G04 #@! TO.P,SW10,1*
G04 #@! TO.N,Net-(B1-Pad14)*
X116500000Y-48000000D03*
G04 #@! TD*
G04 #@! TO.P,SW11,1*
G04 #@! TO.N,Net-(B1-Pad15)*
X126500000Y-48000000D03*
G04 #@! TO.P,SW11,2*
G04 #@! TO.N,Net-(B1-Pad7)*
X126500000Y-52500000D03*
G04 #@! TO.P,SW11,1*
G04 #@! TO.N,Net-(B1-Pad15)*
X120000000Y-48000000D03*
G04 #@! TO.P,SW11,2*
G04 #@! TO.N,Net-(B1-Pad7)*
X120000000Y-52500000D03*
G04 #@! TD*
G04 #@! TO.P,SW12,2*
G04 #@! TO.N,Net-(B1-Pad7)*
X130000000Y-52500000D03*
G04 #@! TO.P,SW12,1*
G04 #@! TO.N,Net-(B1-Pad16)*
X130000000Y-48000000D03*
G04 #@! TO.P,SW12,2*
G04 #@! TO.N,Net-(B1-Pad7)*
X136500000Y-52500000D03*
G04 #@! TO.P,SW12,1*
G04 #@! TO.N,Net-(B1-Pad16)*
X136500000Y-48000000D03*
G04 #@! TD*
G04 #@! TO.P,SW13,2*
G04 #@! TO.N,Net-(B1-Pad8)*
X100000000Y-60500000D03*
G04 #@! TO.P,SW13,1*
G04 #@! TO.N,Net-(B1-Pad13)*
X100000000Y-56000000D03*
G04 #@! TO.P,SW13,2*
G04 #@! TO.N,Net-(B1-Pad8)*
X106500000Y-60500000D03*
G04 #@! TO.P,SW13,1*
G04 #@! TO.N,Net-(B1-Pad13)*
X106500000Y-56000000D03*
G04 #@! TD*
G04 #@! TO.P,SW14,1*
G04 #@! TO.N,Net-(B1-Pad14)*
X116500000Y-56000000D03*
G04 #@! TO.P,SW14,2*
G04 #@! TO.N,Net-(B1-Pad8)*
X116500000Y-60500000D03*
G04 #@! TO.P,SW14,1*
G04 #@! TO.N,Net-(B1-Pad14)*
X110000000Y-56000000D03*
G04 #@! TO.P,SW14,2*
G04 #@! TO.N,Net-(B1-Pad8)*
X110000000Y-60500000D03*
G04 #@! TD*
G04 #@! TO.P,SW15,2*
G04 #@! TO.N,Net-(B1-Pad8)*
X120000000Y-60500000D03*
G04 #@! TO.P,SW15,1*
G04 #@! TO.N,Net-(B1-Pad15)*
X120000000Y-56000000D03*
G04 #@! TO.P,SW15,2*
G04 #@! TO.N,Net-(B1-Pad8)*
X126500000Y-60500000D03*
G04 #@! TO.P,SW15,1*
G04 #@! TO.N,Net-(B1-Pad15)*
X126500000Y-56000000D03*
G04 #@! TD*
G04 #@! TO.P,SW16,1*
G04 #@! TO.N,Net-(B1-Pad16)*
X136500000Y-56000000D03*
G04 #@! TO.P,SW16,2*
G04 #@! TO.N,Net-(B1-Pad8)*
X136500000Y-60500000D03*
G04 #@! TO.P,SW16,1*
G04 #@! TO.N,Net-(B1-Pad16)*
X130000000Y-56000000D03*
G04 #@! TO.P,SW16,2*
G04 #@! TO.N,Net-(B1-Pad8)*
X130000000Y-60500000D03*
G04 #@! TD*
D12*
G04 #@! TO.N,Net-(B1-Pad5)*
X92049600Y-36626800D03*
G04 #@! TO.N,Net-(B1-Pad6)*
X91389200Y-44297600D03*
G04 #@! TO.N,Net-(B1-Pad7)*
X91541600Y-51917600D03*
G04 #@! TO.N,Net-(B1-Pad8)*
X91135200Y-59639200D03*
G04 #@! TD*
D13*
G04 #@! TO.N,Net-(B1-Pad5)*
X106500000Y-36500000D02*
X110000000Y-36500000D01*
X116500000Y-36500000D02*
X120000000Y-36500000D01*
X126500000Y-36500000D02*
X130000000Y-36500000D01*
X92105599Y-36570801D02*
X92049600Y-36626800D01*
X100000000Y-36500000D02*
X99929199Y-36570801D01*
X99929199Y-36570801D02*
X92105599Y-36570801D01*
G04 #@! TO.N,Net-(B1-Pad6)*
X91495999Y-44190801D02*
X91389200Y-44297600D01*
X100000000Y-44500000D02*
X100309199Y-44190801D01*
X100309199Y-44190801D02*
X91495999Y-44190801D01*
X130000000Y-44500000D02*
X126500000Y-44500000D01*
X120000000Y-44500000D02*
X116500000Y-44500000D01*
X110000000Y-44500000D02*
X106500000Y-44500000D01*
G04 #@! TO.N,Net-(B1-Pad7)*
X100000000Y-52500000D02*
X100689199Y-51810801D01*
X91648399Y-51810801D02*
X91541600Y-51917600D01*
X100689199Y-51810801D02*
X91648399Y-51810801D01*
X110000000Y-52500000D02*
X106500000Y-52500000D01*
X120000000Y-52500000D02*
X116500000Y-52500000D01*
G04 #@! TO.N,Net-(B1-Pad8)*
X100000000Y-60500000D02*
X98941199Y-59441199D01*
X91333201Y-59441199D02*
X91135200Y-59639200D01*
X98941199Y-59441199D02*
X91333201Y-59441199D01*
G04 #@! TO.N,Net-(B1-Pad13)*
X100000000Y-56000000D02*
X106500000Y-56000000D01*
G04 #@! TO.N,Net-(B1-Pad15)*
X118674999Y-54674999D02*
X97318601Y-54674999D01*
X97318601Y-54674999D02*
X96367600Y-55626000D01*
X120000000Y-56000000D02*
X118674999Y-54674999D01*
G04 #@! TO.N,Net-(B1-Pad16)*
X97506589Y-54224989D02*
X96367600Y-53086000D01*
X128224989Y-54224989D02*
X97506589Y-54224989D01*
X130000000Y-56000000D02*
X128224989Y-54224989D01*
G04 #@! TD*
M02*
