G04 #@! TF.GenerationSoftware,KiCad,Pcbnew,(5.1.6)-1*
G04 #@! TF.CreationDate,2021-02-20T14:11:22-05:00*
G04 #@! TF.ProjectId,MacroKeyboard2,4d616372-6f4b-4657-9962-6f617264322e,rev?*
G04 #@! TF.SameCoordinates,Original*
G04 #@! TF.FileFunction,Soldermask,Top*
G04 #@! TF.FilePolarity,Negative*
%FSLAX46Y46*%
G04 Gerber Fmt 4.6, Leading zero omitted, Abs format (unit mm)*
G04 Created by KiCad (PCBNEW (5.1.6)-1) date 2021-02-20 14:11:22*
%MOMM*%
%LPD*%
G01*
G04 APERTURE LIST*
%ADD10C,2.100000*%
%ADD11C,2.082800*%
G04 APERTURE END LIST*
D10*
G04 #@! TO.C,REF\u002A\u002A*
X78000000Y-65000000D03*
G04 #@! TD*
G04 #@! TO.C,REF\u002A\u002A*
X137000000Y-28000000D03*
G04 #@! TD*
D11*
G04 #@! TO.C,B1*
X81127600Y-32766000D03*
X81127600Y-35306000D03*
X81127600Y-37846000D03*
X81127600Y-40386000D03*
X81127600Y-42926000D03*
X81127600Y-45466000D03*
X81127600Y-48006000D03*
X81127600Y-50546000D03*
X81127600Y-53086000D03*
X81127600Y-55626000D03*
X81127600Y-58166000D03*
X81127600Y-60706000D03*
X96367600Y-60706000D03*
X96367600Y-58166000D03*
X96367600Y-55626000D03*
X96367600Y-53086000D03*
X96367600Y-50546000D03*
X96367600Y-48006000D03*
X96367600Y-45466000D03*
X96367600Y-42926000D03*
X96367600Y-40386000D03*
X96367600Y-37846000D03*
X96367600Y-35306000D03*
X96367600Y-32766000D03*
G04 #@! TD*
D10*
G04 #@! TO.C,SW1*
X106500000Y-32000000D03*
X106500000Y-36500000D03*
X100000000Y-32000000D03*
X100000000Y-36500000D03*
G04 #@! TD*
G04 #@! TO.C,SW2*
X110000000Y-36500000D03*
X110000000Y-32000000D03*
X116500000Y-36500000D03*
X116500000Y-32000000D03*
G04 #@! TD*
G04 #@! TO.C,SW3*
X120000000Y-36500000D03*
X120000000Y-32000000D03*
X126500000Y-36500000D03*
X126500000Y-32000000D03*
G04 #@! TD*
G04 #@! TO.C,SW4*
X130000000Y-36500000D03*
X130000000Y-32000000D03*
X136500000Y-36500000D03*
X136500000Y-32000000D03*
G04 #@! TD*
G04 #@! TO.C,SW5*
X100000000Y-44500000D03*
X100000000Y-40000000D03*
X106500000Y-44500000D03*
X106500000Y-40000000D03*
G04 #@! TD*
G04 #@! TO.C,SW6*
X116500000Y-40000000D03*
X116500000Y-44500000D03*
X110000000Y-40000000D03*
X110000000Y-44500000D03*
G04 #@! TD*
G04 #@! TO.C,SW7*
X126500000Y-40000000D03*
X126500000Y-44500000D03*
X120000000Y-40000000D03*
X120000000Y-44500000D03*
G04 #@! TD*
G04 #@! TO.C,SW8*
X136500000Y-40000000D03*
X136500000Y-44500000D03*
X130000000Y-40000000D03*
X130000000Y-44500000D03*
G04 #@! TD*
G04 #@! TO.C,SW9*
X106500000Y-48000000D03*
X106500000Y-52500000D03*
X100000000Y-48000000D03*
X100000000Y-52500000D03*
G04 #@! TD*
G04 #@! TO.C,SW10*
X110000000Y-52500000D03*
X110000000Y-48000000D03*
X116500000Y-52500000D03*
X116500000Y-48000000D03*
G04 #@! TD*
G04 #@! TO.C,SW11*
X126500000Y-48000000D03*
X126500000Y-52500000D03*
X120000000Y-48000000D03*
X120000000Y-52500000D03*
G04 #@! TD*
G04 #@! TO.C,SW12*
X130000000Y-52500000D03*
X130000000Y-48000000D03*
X136500000Y-52500000D03*
X136500000Y-48000000D03*
G04 #@! TD*
G04 #@! TO.C,SW13*
X100000000Y-60500000D03*
X100000000Y-56000000D03*
X106500000Y-60500000D03*
X106500000Y-56000000D03*
G04 #@! TD*
G04 #@! TO.C,SW14*
X116500000Y-56000000D03*
X116500000Y-60500000D03*
X110000000Y-56000000D03*
X110000000Y-60500000D03*
G04 #@! TD*
G04 #@! TO.C,SW15*
X120000000Y-60500000D03*
X120000000Y-56000000D03*
X126500000Y-60500000D03*
X126500000Y-56000000D03*
G04 #@! TD*
G04 #@! TO.C,SW16*
X136500000Y-56000000D03*
X136500000Y-60500000D03*
X130000000Y-56000000D03*
X130000000Y-60500000D03*
G04 #@! TD*
M02*
