M48
; DRILL file {KiCad (5.1.6)-1} date 02/20/21 14:11:35
; FORMAT={-:-/ absolute / inch / decimal}
; #@! TF.CreationDate,2021-02-20T14:11:35-05:00
; #@! TF.GenerationSoftware,Kicad,Pcbnew,(5.1.6)-1
FMAT,2
INCH
T1C0.0157
T2C0.0400
T3C0.0433
T4C0.0787
%
G90
G05
T1
X3.588Y-2.348
X3.598Y-1.744
X3.604Y-2.044
X3.624Y-1.442
T2
X3.194Y-1.29
X3.194Y-1.39
X3.194Y-1.49
X3.194Y-1.59
X3.194Y-1.69
X3.194Y-1.79
X3.194Y-1.89
X3.194Y-1.99
X3.194Y-2.09
X3.194Y-2.19
X3.194Y-2.29
X3.194Y-2.39
X3.794Y-1.29
X3.794Y-1.39
X3.794Y-1.49
X3.794Y-1.59
X3.794Y-1.69
X3.794Y-1.79
X3.794Y-1.89
X3.794Y-1.99
X3.794Y-2.09
X3.794Y-2.19
X3.794Y-2.29
X3.794Y-2.39
T3
X5.1181Y-1.2598
X5.1181Y-1.437
X5.374Y-1.2598
X5.374Y-1.437
X4.3307Y-1.5748
X4.3307Y-1.752
X4.5866Y-1.5748
X4.5866Y-1.752
X3.937Y-1.8898
X3.937Y-2.0669
X4.1929Y-1.8898
X4.1929Y-2.0669
X4.7244Y-2.2047
X4.7244Y-2.3819
X4.9803Y-2.2047
X4.9803Y-2.3819
X4.7244Y-1.8898
X4.7244Y-2.0669
X4.9803Y-1.8898
X4.9803Y-2.0669
X4.3307Y-2.2047
X4.3307Y-2.3819
X4.5866Y-2.2047
X4.5866Y-2.3819
X5.1181Y-1.5748
X5.1181Y-1.752
X5.374Y-1.5748
X5.374Y-1.752
X5.1181Y-2.2047
X5.1181Y-2.3819
X5.374Y-2.2047
X5.374Y-2.3819
X4.7244Y-1.2598
X4.7244Y-1.437
X4.9803Y-1.2598
X4.9803Y-1.437
X3.937Y-1.5748
X3.937Y-1.752
X4.1929Y-1.5748
X4.1929Y-1.752
X5.1181Y-1.8898
X5.1181Y-2.0669
X5.374Y-1.8898
X5.374Y-2.0669
X4.3307Y-1.2598
X4.3307Y-1.437
X4.5866Y-1.2598
X4.5866Y-1.437
X4.7244Y-1.5748
X4.7244Y-1.752
X4.9803Y-1.5748
X4.9803Y-1.752
X3.937Y-1.2598
X3.937Y-1.437
X4.1929Y-1.2598
X4.1929Y-1.437
X3.937Y-2.2047
X3.937Y-2.3819
X4.1929Y-2.2047
X4.1929Y-2.3819
X4.3307Y-1.8898
X4.3307Y-2.0669
X4.5866Y-1.8898
X4.5866Y-2.0669
T4
X5.3937Y-1.1024
X3.0709Y-2.5591
T0
M30
