%TF.GenerationSoftware,KiCad,Pcbnew,(5.1.6)-1*%
%TF.CreationDate,2021-03-20T19:14:11-04:00*%
%TF.ProjectId,MacroKeyboard2RotaryEncoders_Mech_with_profiles,4d616372-6f4b-4657-9962-6f6172643252,rev?*%
%TF.SameCoordinates,Original*%
%TF.FileFunction,Soldermask,Top*%
%TF.FilePolarity,Negative*%
%FSLAX46Y46*%
G04 Gerber Fmt 4.6, Leading zero omitted, Abs format (unit mm)*
G04 Created by KiCad (PCBNEW (5.1.6)-1) date 2021-03-20 19:14:11*
%MOMM*%
%LPD*%
G01*
G04 APERTURE LIST*
%ADD10C,2.100000*%
%ADD11C,2.082800*%
%ADD12O,1.700000X2.100000*%
%ADD13O,1.500000X1.500000*%
%ADD14C,1.500000*%
%ADD15C,4.100000*%
%ADD16C,2.300000*%
%ADD17R,3.300000X2.100000*%
%ADD18R,2.100000X2.100000*%
G04 APERTURE END LIST*
D10*
%TO.C,REF\u002A\u002A*%
X153003200Y-43001600D03*
%TD*%
%TO.C,REF\u002A\u002A*%
X59001600Y-42997200D03*
%TD*%
%TO.C,REF\u002A\u002A*%
X58998800Y-124998800D03*
%TD*%
%TO.C,REF\u002A\u002A*%
X153002400Y-124996400D03*
%TD*%
D11*
%TO.C,B1*%
X58170000Y-47366400D03*
X58170000Y-49906400D03*
X58170000Y-52446400D03*
X58170000Y-54986400D03*
X58170000Y-57526400D03*
X58170000Y-60066400D03*
X58170000Y-62606400D03*
X58170000Y-65146400D03*
X58170000Y-67686400D03*
X58170000Y-70226400D03*
X58170000Y-72766400D03*
X58170000Y-75306400D03*
X73410000Y-75306400D03*
X73410000Y-72766400D03*
X73410000Y-70226400D03*
X73410000Y-67686400D03*
X73410000Y-65146400D03*
X73410000Y-62606400D03*
X73410000Y-60066400D03*
X73410000Y-57526400D03*
X73410000Y-54986400D03*
X73410000Y-52446400D03*
X73410000Y-49906400D03*
X73410000Y-47366400D03*
%TD*%
D12*
%TO.C,Brd1*%
X65417200Y-79976400D03*
X62877200Y-79976400D03*
X57797200Y-79976400D03*
X60337200Y-79976400D03*
%TD*%
D13*
%TO.C,R1*%
X83518400Y-120304800D03*
D14*
X78438400Y-120304800D03*
%TD*%
%TO.C,R2*%
X88959600Y-120306400D03*
D13*
X94039600Y-120306400D03*
%TD*%
%TO.C,R3*%
X136892999Y-120298599D03*
D14*
X141972999Y-120298599D03*
%TD*%
%TO.C,R4*%
X152491600Y-120301200D03*
D13*
X147411600Y-120301200D03*
%TD*%
%TO.C,R5*%
X75783801Y-117030999D03*
D14*
X75783801Y-122110999D03*
%TD*%
%TO.C,R6*%
X72633801Y-122110999D03*
D13*
X72633801Y-117030999D03*
%TD*%
D15*
%TO.C,SW1*%
X85460000Y-53080000D03*
D16*
X81650000Y-50540000D03*
X88000000Y-48000000D03*
%TD*%
%TO.C,SW2*%
X108000000Y-48000000D03*
X101650000Y-50540000D03*
D15*
X105460000Y-53080000D03*
%TD*%
%TO.C,SW3*%
X125460000Y-53080000D03*
D16*
X121650000Y-50540000D03*
X128000000Y-48000000D03*
%TD*%
D15*
%TO.C,SW4*%
X145460000Y-53080000D03*
D16*
X141650000Y-50540000D03*
X148000000Y-48000000D03*
%TD*%
D15*
%TO.C,SW5*%
X85460000Y-73080000D03*
D16*
X81650000Y-70540000D03*
X88000000Y-68000000D03*
%TD*%
%TO.C,SW6*%
X108000000Y-68000000D03*
X101650000Y-70540000D03*
D15*
X105460000Y-73080000D03*
%TD*%
D16*
%TO.C,SW7*%
X128000000Y-68000000D03*
X121650000Y-70540000D03*
D15*
X125460000Y-73080000D03*
%TD*%
D16*
%TO.C,SW8*%
X148000000Y-68000000D03*
X141650000Y-70540000D03*
D15*
X145460000Y-73080000D03*
%TD*%
D16*
%TO.C,SW9*%
X88000000Y-88000000D03*
X81650000Y-90540000D03*
D15*
X85460000Y-93080000D03*
%TD*%
%TO.C,SW10*%
X105460000Y-93080000D03*
D16*
X101650000Y-90540000D03*
X108000000Y-88000000D03*
%TD*%
%TO.C,SW11*%
X128000000Y-88000000D03*
X121650000Y-90540000D03*
D15*
X125460000Y-93080000D03*
%TD*%
%TO.C,SW12*%
X145460000Y-93080000D03*
D16*
X141650000Y-90540000D03*
X148000000Y-88000000D03*
%TD*%
D10*
%TO.C,SW13*%
X93484800Y-113151600D03*
X93484800Y-108151600D03*
D17*
X86484800Y-116251600D03*
X86484800Y-105051600D03*
D10*
X78984800Y-113151600D03*
X78984800Y-110651600D03*
D18*
X78984800Y-108151600D03*
%TD*%
D15*
%TO.C,SW14*%
X105460000Y-113080000D03*
D16*
X101650000Y-110540000D03*
X108000000Y-108000000D03*
%TD*%
%TO.C,SW15*%
X128000000Y-108000000D03*
X121650000Y-110540000D03*
D15*
X125460000Y-113080000D03*
%TD*%
D18*
%TO.C,SW16*%
X137438800Y-108151600D03*
D10*
X137438800Y-110651600D03*
X137438800Y-113151600D03*
D17*
X144938800Y-105051600D03*
X144938800Y-116251600D03*
D10*
X151938800Y-108151600D03*
X151938800Y-113151600D03*
%TD*%
%TO.C,SW17*%
X62750600Y-122000400D03*
X62750600Y-117500400D03*
X69250600Y-122000400D03*
X69250600Y-117500400D03*
%TD*%
%TO.C,SW18*%
X64330400Y-108051600D03*
X64330400Y-112551600D03*
X57830400Y-108051600D03*
X57830400Y-112551600D03*
%TD*%
%TO.C,SW19*%
X67680000Y-112552400D03*
X67680000Y-108052400D03*
X74180000Y-112552400D03*
X74180000Y-108052400D03*
%TD*%
M02*
